<?xml version="1.0" encoding="UTF-8" standalone="no"?>
<svg
   id="Layer_2"
   viewBox="0 0 554.99998 554.99997"
   version="1.1"
   sodipodi:docname="favicon.svg"
   width="555"
   height="555"
   inkscape:version="1.3.2 (091e20ef0f, 2023-11-25, custom)"
   xmlns:inkscape="http://www.inkscape.org/namespaces/inkscape"
   xmlns:sodipodi="http://sodipodi.sourceforge.net/DTD/sodipodi-0.dtd"
   xmlns="http://www.w3.org/2000/svg"
   xmlns:svg="http://www.w3.org/2000/svg">
  <defs
     id="defs3" />
  <sodipodi:namedview
     id="namedview3"
     pagecolor="#ffffff"
     bordercolor="#000000"
     borderopacity="0.25"
     inkscape:showpageshadow="2"
     inkscape:pageopacity="0.0"
     inkscape:pagecheckerboard="0"
     inkscape:deskcolor="#d1d1d1"
     inkscape:zoom="0.65209391"
     inkscape:cx="519.09701"
     inkscape:cy="115.01411"
     inkscape:window-width="1124"
     inkscape:window-height="1446"
     inkscape:window-x="1130"
     inkscape:window-y="56"
     inkscape:window-maximized="1"
     inkscape:current-layer="Layer_1-2" />
  <g
     id="Layer_1-2">
    <rect
       y="-369.9967"
       width="555"
       height="185.00334"
       transform="scale(-1)"
       style="fill:#e50051;stroke-width:0.774566"
       id="rect2"
       x="-555" />
    <rect
       y="-555"
       width="555"
       height="185.00334"
       transform="scale(-1)"
       style="fill:#340c46;stroke-width:0.774566"
       id="rect1"
       x="-555" />
    <rect
       y="-185.00334"
       width="555"
       height="185.00334"
       transform="scale(-1)"
       style="fill:#009fe3;stroke-width:0.774566"
       id="rect3"
       x="-555" />
    <polygon
       points="0,555.59 370.39,185.2 185.2,0 0,0 "
       style="fill:#ffffff"
       id="polygon3" />
    <path
       d="m 89.62,94.72 v 0 c -23.89,23.89 -23.89,62.64 0,86.53 l 3.82,3.82 v 0 c 0,0 -4.07,4.07 -4.07,4.07 -23.89,23.89 -23.89,62.64 0,86.53 v 0 c 23.89,23.89 62.64,23.89 86.53,0 l 4.07,-4.07 86.53,-86.53 0.79,-0.79 -87.09,-85.52 -0.23,-0.23 -3.82,-3.82 c -23.89,-23.89 -62.64,-23.89 -86.53,0 z"
       style="fill:#fcbf00"
       id="path3" />
  </g>
</svg>
