<?xml version="1.0" encoding="UTF-8" standalone="no"?>
<!DOCTYPE svg PUBLIC "-//W3C//DTD SVG 1.1//EN"
 "http://www.w3.org/Graphics/SVG/1.1/DTD/svg11.dtd">
<!-- Generated by graphviz version 2.42.4 (0)
 -->
<!-- Pages: 1 -->
<svg width="538pt" height="325pt"
 viewBox="0.00 0.00 537.66 325.35" xmlns="http://www.w3.org/2000/svg" xmlns:xlink="http://www.w3.org/1999/xlink">
<g id="graph0" class="graph" transform="scale(1 1) rotate(0) translate(4 321.35)">
<!-- A -->
<g id="node1" class="node">
<title>A</title>
<ellipse fill="none" stroke="#dddddd" cx="80.64" cy="-80.74" rx="33.29" ry="18"/>
<text text-anchor="middle" x="80.64" y="-77.04" font-family="Times,serif" font-size="14.00" fill="#dddddd">Alice</text>
</g>
<!-- B -->
<g id="node2" class="node">
<title>B</title>
<ellipse fill="none" stroke="#dddddd" cx="147.68" cy="-33.99" rx="28.7" ry="18"/>
<text text-anchor="middle" x="147.68" y="-30.29" font-family="Times,serif" font-size="14.00" fill="#dddddd">Bob</text>
</g>
<!-- A&#45;&gt;B -->
<g id="edge5" class="edge">
<title>A&#45;&gt;B</title>
<path fill="none" stroke="#dddddd" d="M101.12,-66.46C109.74,-60.45 119.73,-53.48 128.24,-47.55"/>
</g>
<!-- F -->
<g id="node6" class="node">
<title>F</title>
<ellipse fill="none" stroke="#dddddd" cx="92.2" cy="-163.61" rx="35.19" ry="18"/>
<text text-anchor="middle" x="92.2" y="-159.91" font-family="Times,serif" font-size="14.00" fill="#dddddd">Katie</text>
</g>
<!-- A&#45;&gt;F -->
<g id="edge1" class="edge">
<title>A&#45;&gt;F</title>
<path fill="none" stroke="#dddddd" d="M77.49,-98.68C77.94,-112.73 80.61,-132.16 83.99,-146.1"/>
</g>
<!-- C -->
<g id="node3" class="node">
<title>C</title>
<ellipse fill="none" stroke="#dddddd" cx="225.44" cy="-57.79" rx="44.39" ry="18"/>
<text text-anchor="middle" x="225.44" y="-54.09" font-family="Times,serif" font-size="14.00" fill="#dddddd">Charlie</text>
</g>
<!-- B&#45;&gt;C -->
<g id="edge3" class="edge">
<title>B&#45;&gt;C</title>
<path fill="none" stroke="#dddddd" d="M168.36,-46.79C173.01,-48.58 178.11,-50.33 183.29,-51.95"/>
</g>
<!-- B&#45;&gt;C -->
<g id="edge6" class="edge">
<title>B&#45;&gt;C</title>
<path fill="none" stroke="#dddddd" d="M176.32,-36.01C183.99,-37.96 192.23,-40.46 199.73,-43.13"/>
</g>
<!-- D -->
<g id="node4" class="node">
<title>D</title>
<ellipse fill="none" stroke="#dddddd" cx="241.63" cy="-142.71" rx="34.39" ry="18"/>
<text text-anchor="middle" x="241.63" y="-139.01" font-family="Times,serif" font-size="14.00" fill="#dddddd">Dave</text>
</g>
<!-- C&#45;&gt;D -->
<g id="edge7" class="edge">
<title>C&#45;&gt;D</title>
<path fill="none" stroke="#dddddd" d="M228.87,-75.8C231.62,-90.21 235.45,-110.32 238.2,-124.73"/>
</g>
<!-- E -->
<g id="node5" class="node">
<title>E</title>
<ellipse fill="none" stroke="#dddddd" cx="171.51" cy="-186.23" rx="37.09" ry="18"/>
<text text-anchor="middle" x="171.51" y="-182.53" font-family="Times,serif" font-size="14.00" fill="#dddddd">Steve</text>
</g>
<!-- D&#45;&gt;E -->
<g id="edge2" class="edge">
<title>D&#45;&gt;E</title>
<path fill="none" stroke="#dddddd" d="M212.88,-152.89C204.02,-157.88 194.62,-163.9 187,-169.5"/>
</g>
<!-- D&#45;&gt;E -->
<g id="edge8" class="edge">
<title>D&#45;&gt;E</title>
<path fill="none" stroke="#dddddd" d="M226.73,-159.01C219.34,-164.49 210.17,-170.4 201.43,-175.39"/>
</g>
<!-- H -->
<g id="node8" class="node">
<title>H</title>
<ellipse fill="none" stroke="#dddddd" cx="323.4" cy="-151.24" rx="28.7" ry="18"/>
<text text-anchor="middle" x="323.4" y="-147.54" font-family="Times,serif" font-size="14.00" fill="#dddddd">Eve</text>
</g>
<!-- D&#45;&gt;H -->
<g id="edge12" class="edge">
<title>D&#45;&gt;H</title>
<path fill="none" stroke="#dddddd" d="M275.83,-146.28C282.22,-146.95 288.84,-147.64 295.03,-148.28"/>
</g>
<!-- E&#45;&gt;F -->
<g id="edge9" class="edge">
<title>E&#45;&gt;F</title>
<path fill="none" stroke="#dddddd" d="M139.25,-177.03C133.85,-175.48 128.25,-173.89 122.89,-172.36"/>
</g>
<!-- F&#45;&gt;A -->
<g id="edge10" class="edge">
<title>F&#45;&gt;A</title>
<path fill="none" stroke="#dddddd" d="M95.34,-145.66C94.9,-131.61 92.23,-112.19 88.85,-98.25"/>
</g>
<!-- G -->
<g id="node7" class="node">
<title>G</title>
<ellipse fill="none" stroke="#dddddd" cx="29.9" cy="-210.18" rx="29.8" ry="18"/>
<text text-anchor="middle" x="29.9" y="-206.48" font-family="Times,serif" font-size="14.00" fill="#dddddd">Kris</text>
</g>
<!-- F&#45;&gt;G -->
<g id="edge11" class="edge">
<title>F&#45;&gt;G</title>
<path fill="none" stroke="#dddddd" d="M72.14,-178.6C64.74,-184.13 56.38,-190.38 49.07,-195.85"/>
</g>
<!-- I -->
<g id="node9" class="node">
<title>I</title>
<ellipse fill="none" stroke="#dddddd" cx="351.4" cy="-72.45" rx="30.59" ry="18"/>
<text text-anchor="middle" x="351.4" y="-68.75" font-family="Times,serif" font-size="14.00" fill="#dddddd">Tom</text>
</g>
<!-- H&#45;&gt;I -->
<g id="edge4" class="edge">
<title>H&#45;&gt;I</title>
<path fill="none" stroke="#dddddd" d="M335.54,-134.52C341.51,-121.58 347.77,-103.71 350.91,-90.45"/>
</g>
<!-- H&#45;&gt;I -->
<g id="edge13" class="edge">
<title>H&#45;&gt;I</title>
<path fill="none" stroke="#dddddd" d="M323.93,-133.04C327.1,-119.75 333.36,-101.91 339.33,-89.01"/>
</g>
<!-- L -->
<g id="node11" class="node">
<title>L</title>
<ellipse fill="none" stroke="#dddddd" cx="379.02" cy="-206.65" rx="40.09" ry="18"/>
<text text-anchor="middle" x="379.02" y="-202.95" font-family="Times,serif" font-size="14.00" fill="#dddddd">Staple</text>
</g>
<!-- H&#45;&gt;L -->
<g id="edge16" class="edge">
<title>H&#45;&gt;L</title>
<path fill="none" stroke="#dddddd" d="M338.89,-166.68C346.22,-173.98 354.98,-182.7 362.44,-190.13"/>
</g>
<!-- J -->
<g id="node10" class="node">
<title>J</title>
<ellipse fill="none" stroke="#dddddd" cx="294.14" cy="-18" rx="33.29" ry="18"/>
<text text-anchor="middle" x="294.14" y="-14.3" font-family="Times,serif" font-size="14.00" fill="#dddddd">Jules</text>
</g>
<!-- I&#45;&gt;J -->
<g id="edge14" class="edge">
<title>I&#45;&gt;J</title>
<path fill="none" stroke="#dddddd" d="M335.14,-56.99C327.47,-49.7 318.33,-41.01 310.63,-33.68"/>
</g>
<!-- J&#45;&gt;C -->
<g id="edge15" class="edge">
<title>J&#45;&gt;C</title>
<path fill="none" stroke="#dddddd" d="M271.26,-31.25C264.86,-34.96 257.86,-39.01 251.3,-42.81"/>
</g>
<!-- M -->
<g id="node12" class="node">
<title>M</title>
<ellipse fill="none" stroke="#dddddd" cx="434.46" cy="-256.61" rx="35.19" ry="18"/>
<text text-anchor="middle" x="434.46" y="-252.91" font-family="Times,serif" font-size="14.00" fill="#dddddd">Hank</text>
</g>
<!-- L&#45;&gt;M -->
<g id="edge17" class="edge">
<title>L&#45;&gt;M</title>
<path fill="none" stroke="#dddddd" d="M397.17,-223.01C403.49,-228.7 410.56,-235.07 416.83,-240.72"/>
</g>
<!-- N -->
<g id="node13" class="node">
<title>N</title>
<ellipse fill="none" stroke="#dddddd" cx="493.91" cy="-299.35" rx="36" ry="18"/>
<text text-anchor="middle" x="493.91" y="-295.65" font-family="Times,serif" font-size="14.00" fill="#dddddd">Nigel</text>
</g>
<!-- M&#45;&gt;N -->
<g id="edge18" class="edge">
<title>M&#45;&gt;N</title>
<path fill="none" stroke="#dddddd" d="M454.92,-271.32C460.83,-275.57 467.29,-280.21 473.21,-284.47"/>
</g>
</g>
</svg>
